<?xml version="1.0" encoding="UTF-8" standalone="no"?>
<svg
   xmlns:dc="http://purl.org/dc/elements/1.1/"
   xmlns:cc="http://creativecommons.org/ns#"
   xmlns:rdf="http://www.w3.org/1999/02/22-rdf-syntax-ns#"
   xmlns:svg="http://www.w3.org/2000/svg"
   xmlns="http://www.w3.org/2000/svg"
   xmlns:sodipodi="http://sodipodi.sourceforge.net/DTD/sodipodi-0.dtd"
   xmlns:inkscape="http://www.inkscape.org/namespaces/inkscape"
   sodipodi:docname="logo-blue.svg"
   inkscape:version="1.0 (1.0+r73+1)"
   id="svg2"
   xml:space="preserve"
   enable-background="new 0 0 768 494"
   viewBox="0 0 225 225"
   height="225"
   width="225"
   y="0px"
   x="0px"
   version="1.1"
   inkscape:export-filename="/home/gribeiro/Devel/github/geo-knowledge-hub/docs-geo-knowledge-hub/docs/img/logo-blue-256x256.png"
   inkscape:export-xdpi="109.23"
   inkscape:export-ydpi="109.23"><metadata
     id="metadata92"><rdf:RDF><cc:Work
         rdf:about=""><dc:format>image/svg+xml</dc:format><dc:type
           rdf:resource="http://purl.org/dc/dcmitype/StillImage" /><dc:title></dc:title></cc:Work></rdf:RDF></metadata><defs
     id="defs90" /><sodipodi:namedview
     inkscape:document-rotation="0"
     inkscape:current-layer="svg2"
     inkscape:window-maximized="0"
     inkscape:window-y="153"
     inkscape:window-x="185"
     inkscape:cy="151.08346"
     inkscape:cx="224.49919"
     inkscape:zoom="1.2575195"
     showgrid="false"
     id="namedview88"
     inkscape:window-height="759"
     inkscape:window-width="1439"
     inkscape:pageshadow="2"
     inkscape:pageopacity="0"
     guidetolerance="10"
     gridtolerance="10"
     objecttolerance="10"
     borderopacity="1"
     bordercolor="#666666"
     pagecolor="#ffffff" /><g
     transform="translate(0,-240)"
     id="Camada_2" /><g
     style="fill:#526479;fill-opacity:1"
     transform="matrix(1.1405026,0,0,1.1405026,-59.553371,-23.790061)"
     id="g40"><g
       style="fill:#526479;fill-opacity:1"
       id="g42"><path
         d="m 80.38,57.703 c -16.319,16.424 -25.304,38.554 -25.304,61.976 0,23.424 8.984,45.312 25.304,61.726 C 96.784,197.912 118.829,207 142.462,207 H 146 V 32 h -3.538 C 118.829,32 96.784,41.195 80.38,57.703 Z M 127.205,40.052 C 118.22,47.071 110.749,59 105.904,76 H 73.855 C 85.55,57 104.581,44.203 127.205,40.052 Z M 71.963,79 h 33.048 c -3.194,12 -5.023,26 -5.076,40 H 61.403 c 0.115,-14 3.919,-28 10.56,-40 z m -10.518,43 h 38.511 c 0.19,14 1.965,27 4.971,38 H 71.806 C 65.542,149 61.844,136 61.445,122 Z m 12.231,41 h 32.144 c 4.834,16 12.347,29.17 21.385,36.232 C 104.465,195.07 85.351,181 73.676,163 Z M 140,200.551 c -2,-0.054 -3.262,-0.146 -4.69,-0.271 C 124.528,195.446 114.92,181 109.193,163 H 140 Z M 140,160 h -31.721 c -3.11,-11 -4.97,-24 -5.17,-38 H 140 Z m 0,-41 h -36.911 c 0.052,-14 1.975,-28 5.274,-40 H 140 Z m 0,-43 h -30.712 c 5.728,-19 15.293,-32.287 26.022,-37.101 1.429,-0.126 2.69,-0.322 4.69,-0.374 z"
         id="path44"
         inkscape:connector-curvature="0"
         style="fill:#526479;fill-opacity:1" /><path
         d="m 246.639,120.446 c 0,-9.614 -5.443,-15.415 -8.826,-18.094 1.628,-3.552 3.793,-10.057 1.566,-16.298 -2.522,-7.03 -8.049,-9.898 -12.21,-11.076 -0.126,-0.158 -0.252,-0.305 -0.389,-0.452 0.851,-2.774 1.261,-6.536 -0.473,-10.624 -3.363,-7.881 -9.625,-10.213 -13.418,-10.886 -0.431,-3.72 -2.26,-9.793 -9.216,-13.724 -3.236,-1.828 -6.567,-2.763 -9.898,-2.763 -1.67,0 -3.142,0.23 -4.382,0.557 -0.81,-0.494 -1.755,-0.798 -2.774,-0.798 -0.483,0 -0.946,0.094 -1.397,0.209 -3.142,-2.027 -8.039,-4.403 -13.818,-4.403 -2.228,0 -4.445,0.358 -6.578,1.072 -14.491,4.824 -15.983,18.894 -16.046,19.493 l -0.01,140.536 0.357,0.682 c 0.273,0.536 7.021,13.041 25.661,13.041 11.402,0 20.27,-6.862 25.661,-12.547 l 1.041,0.379 c 0.105,0.042 0.21,0.157 0.231,0.272 l 0.42,2.249 c 0.021,0.115 0.126,0.221 0.242,0.241 0,0 0.063,0 0.189,0.021 0.694,0.095 1.849,0.105 1.849,0.105 0.116,0 0.231,-0.085 0.273,-0.189 l 0.788,-2.196 c 0.032,-0.105 0.158,-0.21 0.274,-0.231 l 1.051,-0.241 c 0.115,-0.031 0.263,0.011 0.347,0.095 l 1.565,1.671 c 0.074,0.073 0.221,0.105 0.326,0.052 l 1.828,-1.019 c 0.095,-0.063 0.158,-0.211 0.126,-0.315 l -0.525,-2.28 c -0.021,-0.116 0.021,-0.272 0.105,-0.347 l 0.651,-0.672 c 0.073,-0.085 0.221,-0.127 0.336,-0.106 l 2.228,0.558 c 0.106,0.032 0.242,-0.032 0.305,-0.126 l 1.019,-1.923 c 0.042,-0.105 0.022,-0.253 -0.063,-0.325 l -1.681,-1.65 c -0.084,-0.074 -0.126,-0.231 -0.106,-0.347 l 0.158,-0.757 c 0.021,-0.105 0.126,-0.231 0.231,-0.273 l 2.175,-0.735 c 0.115,-0.031 0.199,-0.158 0.199,-0.273 l -0.052,-0.673 c 8.69,-3.531 19.576,-11.033 23.812,-26.857 2.007,-7.504 -0.483,-14.354 -2.207,-17.864 3.245,-3.145 9.055,-10.154 9.055,-20.169 z m -6.305,0 c 0,10.36 -8.543,16.877 -8.616,16.93 l -1.313,0.966 -7.271,0.021 -0.2,-1.166 c -0.021,-0.096 -0.126,-0.179 -0.221,-0.19 l -2.06,-0.198 c -0.094,-0.011 -0.21,-0.095 -0.263,-0.179 l -0.242,-0.505 c -0.042,-0.095 -0.042,-0.231 0.011,-0.315 l 1.113,-1.755 c 0.052,-0.084 0.042,-0.221 -0.021,-0.294 l -1.345,-1.492 c -0.074,-0.074 -0.2,-0.095 -0.294,-0.042 l -1.817,0.935 c -0.011,0.011 -0.032,0.011 -0.042,0.021 l 13.591,-24.246 c 0.4,0.099 0.813,0.167 1.244,0.167 0.947,0 1.822,-0.272 2.587,-0.716 2.318,2.214 5.159,6.132 5.159,12.058 z m -36.063,13.798 1.177,1.64 c 0.063,0.084 0.073,0.23 0.031,0.314 l -0.199,0.441 -19.073,-7.733 c 0.242,-0.693 0.368,-1.43 0.368,-2.207 0,-1.43 -0.441,-2.764 -1.198,-3.867 l 8.995,-8.428 c 1.934,1.713 4.477,2.754 7.261,2.754 0.977,0 1.922,-0.137 2.826,-0.379 l 4.288,13.85 0.247,0.793 -0.021,1.13 c 0.01,0.105 -0.128,0.222 -0.212,0.273 l -0.758,0.474 c -0.084,0.063 -0.237,0.072 -0.332,0.03 l -1.899,-0.851 c -0.094,-0.042 -0.225,-0.011 -0.298,0.063 0,0 -0.875,0.915 -1.294,1.534 l -0.012,0.012 c -0.001,0 0.052,0.072 0.103,0.157 z m -1.208,9.583 0.736,1.492 -5.633,3.646 -0.126,-0.156 c -0.083,-0.105 -0.115,-0.305 -0.063,-0.432 l 1.051,-2.637 c 0.053,-0.126 0.01,-0.305 -0.094,-0.399 l -2.238,-1.66 c -0.116,-0.074 -0.294,-0.074 -0.41,0.01 l -2.249,1.755 c -0.116,0.095 -0.305,0.116 -0.431,0.063 l -0.724,-0.272 c -0.138,-0.053 -0.263,-0.188 -0.285,-0.325 l -0.546,-2.817 c -0.032,-0.136 -0.158,-0.263 -0.305,-0.283 l -2.763,-0.221 c -0.138,0 -0.295,0.104 -0.337,0.231 l -0.946,2.679 c -0.042,0.127 -0.137,0.242 -0.21,0.253 l -0.063,0.01 c -0.379,0.064 -0.883,0.18 -0.883,0.18 -0.136,0.031 -0.326,-0.021 -0.421,-0.126 l -1.985,-2.081 c -0.095,-0.095 -0.273,-0.137 -0.399,-0.074 l -2.417,1.262 c -0.116,0.063 -0.19,0.231 -0.158,0.368 l 0.588,2.511 -23.181,-24.084 c 0.021,-0.042 0.042,-0.074 0.063,-0.115 l 14.25,3.604 c -0.01,0.168 -0.032,0.325 -0.032,0.493 0,3.794 3.079,6.862 6.862,6.862 2.27,0 4.266,-1.094 5.517,-2.785 l 17.349,7.04 -0.231,1.775 c 0,0.106 0.074,0.211 0.157,0.253 l 1.892,0.756 c 0.094,0.032 0.189,0.148 0.199,0.253 l 0.168,1.04 c 0.022,0.095 -0.021,0.231 -0.094,0.295 l -1.534,1.355 c -0.085,0.06 -0.116,0.186 -0.074,0.281 z m -12.579,20.659 c -4.612,0.725 -8.942,-2.428 -9.657,-7.041 -0.725,-4.612 2.428,-8.932 7.041,-9.656 4.613,-0.726 8.932,2.428 9.658,7.04 0.724,4.613 -2.439,8.932 -7.042,9.657 z m 26.45,-80.597 -9.73,12.809 c -1.64,-0.956 -3.542,-1.523 -5.569,-1.523 -1.345,0 -2.627,0.252 -3.815,0.693 L 187.775,75.062 c 1.418,-0.914 2.553,-2.238 3.226,-3.804 l 24.095,7.051 c -0.032,0.284 -0.063,0.578 -0.063,0.872 -10e-4,1.829 0.734,3.489 1.901,4.708 z m -4.32,22.172 14.833,-1.679 c 0.134,1.482 0.88,2.777 1.997,3.635 l -12.657,22.592 -0.03,0.619 0.243,-0.619 v -0.137 c 0,-0.105 -0.181,-0.211 -0.275,-0.241 l -1.955,-0.536 c -0.095,-0.021 -0.248,0.031 -0.3,0.115 l -1.022,1.899 c -0.052,0.094 -0.192,0.291 -0.286,0.291 h -0.726 c -0.104,0 -0.231,-0.197 -0.283,-0.281 l -1.135,-1.811 c -0.053,-0.084 -0.179,-0.159 -0.284,-0.139 l -0.05,0.004 -0.002,-0.012 -4.255,-13.715 c 3.667,-1.787 6.2,-5.528 6.2,-9.879 -0.002,-0.031 -0.013,-0.075 -0.013,-0.106 z m -4.875,30.505 c 1.913,-2.784 5.717,-3.5 8.501,-1.587 2.795,1.913 3.499,5.717 1.598,8.501 -1.913,2.785 -5.717,3.499 -8.502,1.586 -2.795,-1.901 -3.499,-5.705 -1.597,-8.5 z m 20.375,-54.789 c 2.102,1.146 4.214,3.037 5.328,6.158 1.34,3.744 0.157,8.029 -0.971,10.804 -2.223,0.05 -4.082,1.498 -4.77,3.5 l -15.296,1.732 c -0.484,-2.385 -1.745,-4.477 -3.499,-6.032 l 9.698,-12.778 c 0.967,0.516 2.06,0.82 3.226,0.82 2.837,-10e-4 5.265,-1.745 6.284,-4.204 z m -7.608,-15.521 c 1.009,2.396 0.767,4.603 0.263,6.221 -2.259,0.357 -4.141,1.817 -5.075,3.814 L 191.578,69.24 c 0.074,-0.452 0.126,-0.915 0.126,-1.387 0,-0.746 -0.105,-1.471 -0.284,-2.155 l 14.252,-6.701 c 0.69,0.782 1.688,1.285 2.813,1.285 1.083,0 2.051,-0.463 2.738,-1.194 0.026,-0.008 0.052,-0.012 0.078,-0.021 2.322,0.296 6.809,1.589 9.205,7.189 z M 187.059,46.89 c 2.249,-0.189 4.087,-1.755 4.665,-3.867 0.62,-0.116 1.293,-0.189 2.049,-0.189 2.228,0 4.518,0.651 6.798,1.944 4.344,2.452 5.638,6.156 6.001,8.513 -1.104,0.656 -1.854,1.85 -1.854,3.228 0,0.2 0.029,0.392 0.059,0.583 l -14.125,6.633 c -1.125,-2.039 -3.038,-3.563 -5.338,-4.172 z m -1.177,29.087 10.045,20.806 c -1.071,0.652 -2.027,1.471 -2.816,2.449 L 160.494,78.909 c 0.199,-0.588 0.315,-1.208 0.315,-1.86 0,-0.063 -0.01,-0.126 -0.01,-0.179 l 14.647,-5.181 c 1.409,2.816 4.309,4.75 7.672,4.75 0.967,0 1.892,-0.168 2.764,-0.462 z M 156,53.143 c 0,-1.282 1.265,-10.655 11.278,-13.997 1.482,-0.494 2.797,-0.746 4.353,-0.746 3.983,0 7.399,1.618 9.794,3.1 0,0.042 -0.067,0.073 -0.067,0.115 0,2.354 1.516,4.33 3.638,5.034 l -1.753,12.63 c -0.031,0 -0.078,-0.01 -0.12,-0.01 -4.74,0 -8.587,3.846 -8.587,8.585 0,0.641 0.072,1.25 0.208,1.849 l -13.926,5.096 C 159.934,72.74 158,71.3 156,71.3 Z m 0,29.643 c 1,0 2.862,-0.799 3.923,-2.049 l 32.252,20.239 c -0.831,1.544 -1.418,3.31 -1.418,5.191 0,2.532 0.805,4.854 2.234,6.704 l -9.023,8.428 c -1.167,-0.904 -2.636,-1.462 -4.234,-1.462 -2.89,0 -5.363,1.787 -6.372,4.319 l -13.919,-3.636 c -0.042,-2.375 -1.442,-4.329 -3.442,-4.761 V 82.786 Z m -0.449,70.11 0.449,-0.01 v -27.384 c 1,-0.169 1.191,-0.536 1.79,-1.062 l 22.595,23.716 -2.574,-0.577 c -0.126,-0.032 -0.341,0.03 -0.415,0.146 l -1.342,2.29 c -0.063,0.127 -0.041,0.306 0.065,0.4 l 2.013,1.944 c 0.104,0.094 0.144,0.283 0.112,0.421 l -0.284,1.155 c -0.032,0.136 -0.159,0.283 -0.295,0.336 l -2.712,0.936 c -0.126,0.042 -0.231,0.2 -0.231,0.336 0,0 0.389,0.799 0.441,1.629 l -12.389,1.965 -0.999,-1.545 c -0.032,-0.073 -0.325,-0.137 -0.409,-0.126 l -1.829,0.157 c -0.084,0.011 -0.241,-0.042 -0.294,-0.104 l -0.315,-0.399 c -0.052,-0.063 -0.084,-0.179 -0.052,-0.263 l 0.62,-1.587 c 0.032,-0.083 0.01,-0.189 -0.053,-0.241 l -1.355,-1.009 c -0.074,-0.042 -0.179,-0.042 -0.252,0.01 l -1.355,1.062 c -0.073,0.053 -0.189,0.063 -0.263,0.031 l -0.441,-0.157 c -0.074,-0.031 -0.157,-0.115 -0.168,-0.199 l -0.189,-1.702 c -0.014,-0.086 0.215,-0.159 0.131,-0.169 z M 156,166.409 v -9.71 c 1,0.568 3.205,2.082 3.52,4.067 0.389,2.533 -1.52,4.908 -3.52,5.643 z m 40.894,10.077 -1.565,1.482 c -0.084,0.084 -0.105,0.23 -0.042,0.325 l 1.124,1.997 c 0.052,0.094 0.042,0.252 -0.01,0.347 l -0.505,0.851 c -0.052,0.095 -0.189,0.179 -0.304,0.189 l -2.333,0.095 c -0.115,0 -0.231,0.095 -0.273,0.199 0,0 -0.41,1.377 -0.525,2.218 0,0.01 0.084,0.052 0.179,0.104 l 2.017,1.072 c 0.106,0.052 0.189,0.188 0.189,0.305 l 0.053,1.113 c 0.01,0.116 -0.063,0.263 -0.158,0.326 l -1.902,1.334 c -0.095,0.074 -0.136,0.211 -0.105,0.315 l 0.673,1.913 c 0.042,0.104 0.167,0.179 0.283,0.179 l 1.598,-0.137 c -4.614,4.654 -11.353,9.898 -20.043,9.898 -12.725,0 -18.244,-6.967 -19.244,-9.068 v -21.384 c 0,-0.105 0.697,-0.294 0.697,-0.294 0.083,-0.022 -0.082,-0.106 -0.072,-0.19 l -0.03,-1.723 c 0.01,-0.084 0.016,-0.189 0.09,-0.221 l 0.666,-0.399 c 0.073,-0.042 0.18,-0.053 0.242,-0.01 l 1.467,0.851 c 0.074,0.042 0.176,0.031 0.24,-0.032 l 1.08,-1.113 c 0.053,-0.063 0.063,-0.179 0.021,-0.252 l -0.862,-1.503 c -0.042,-0.074 -0.042,-0.2 0,-0.272 l 0.315,-0.61 c 0.042,-0.073 0.136,-0.147 0.221,-0.147 l 1.702,-0.084 c 0.084,0 0.168,-0.073 0.19,-0.157 l 0.315,-1.576 c 0.01,-0.084 -0.042,-0.179 -0.116,-0.221 l -1.418,-0.746 16.813,-2.595 0.315,0.063 c 0.136,0.021 0.283,0.158 0.325,0.294 l 0.441,1.282 c 0.053,0.137 0.032,0.325 -0.063,0.441 l -1.754,2.238 c -0.084,0.105 -0.095,0.294 -0.011,0.41 l 1.46,1.996 c 0.084,0.115 0.263,0.158 0.389,0.105 l 2.617,-1.03 c 0.126,-0.053 0.325,-0.021 0.43,0.063 l 1.167,0.884 c 0.116,0.084 0.2,0.263 0.179,0.398 l -0.263,2.816 c -0.01,0.137 0.074,0.295 0.21,0.347 l 2.302,0.862 c 0.125,0.042 0.305,-0.012 0.388,-0.127 l 1.65,-2.301 c 0.084,-0.105 0.263,-0.189 0.399,-0.179 l 1.439,0.094 c 0.147,0 0.305,0.106 0.369,0.232 l 1.292,2.489 c 0.063,0.126 0.231,0.211 0.367,0.2 0,0 0.074,-0.021 0.232,-0.042 0.851,-0.126 2.196,-0.525 2.196,-0.525 0.137,-0.042 0.253,-0.188 0.253,-0.325 l 0.084,-1.524 4.57,9.195 -1.313,-0.768 c -0.096,-0.051 -0.254,-0.04 -0.338,0.033 z m 14.102,10.298 c -0.01,0.084 -0.031,0.179 -0.053,0.263 -0.64,3.646 -4.035,6.148 -7.733,5.633 -0.358,-0.053 -0.694,-0.126 -1.031,-0.23 -2.175,-0.632 -3.846,-2.302 -4.56,-4.372 -0.336,-0.988 -0.452,-2.07 -0.305,-3.174 0.525,-3.772 4.003,-6.42 7.787,-5.895 1.618,0.221 3.026,0.987 4.055,2.091 1.399,1.47 2.135,3.531 1.84,5.684 z m 22.708,-29.937 c -3.541,13.209 -12.367,19.535 -19.586,22.571 l -1.146,-1.544 c -0.073,-0.084 -0.221,-0.126 -0.325,-0.084 l -2.175,0.84 c -0.105,0.042 -0.263,0.021 -0.347,-0.052 l -0.504,-0.389 c -0.094,-0.064 -0.158,-0.211 -0.146,-0.327 l 0.231,-2.322 c 0.01,-0.114 -0.064,-0.241 -0.168,-0.293 l -2.112,-0.82 c -0.106,-0.042 -0.252,0.011 -0.315,0.095 l -1.367,1.871 c -0.063,0.094 -0.167,0.168 -0.221,0.156 l -0.052,-0.01 c -0.315,-0.042 -0.736,-0.073 -0.736,-0.073 -0.115,0 -0.241,-0.095 -0.293,-0.189 l -1.072,-2.102 c -0.042,-0.095 -0.179,-0.169 -0.294,-0.157 l -2.186,0.42 c -0.104,0.031 -0.199,0.147 -0.209,0.263 l -0.116,1.849 -5.348,-10.738 0.22,-0.127 c 0.116,-0.084 0.315,-0.084 0.431,-0.01 l 2.427,1.397 c 0.116,0.074 0.305,0.042 0.399,-0.052 l 1.787,-1.85 c 0.094,-0.105 0.105,-0.284 0.042,-0.41 l -1.418,-2.491 c -0.074,-0.114 -0.074,-0.314 -0.011,-0.441 l 0.525,-1.009 c 0.063,-0.126 0.22,-0.23 0.368,-0.24 l 2.806,-0.137 c 0.136,0 0.273,-0.116 0.315,-0.253 l 0.515,-2.616 c 0.01,-0.137 -0.074,-0.305 -0.189,-0.357 l -2.554,-1.335 c -0.126,-0.063 -0.23,-0.231 -0.241,-0.367 l -0.084,-0.957 c -0.021,-0.136 0.063,-0.314 0.168,-0.389 l 2.301,-1.639 c 0.116,-0.084 0.168,-0.253 0.126,-0.389 l -0.987,-2.554 c -0.063,-0.126 -0.221,-0.221 -0.358,-0.21 l -0.472,0.042 5.6,-3.615 0.21,0.23 c 0.074,0.064 0.116,0.2 0.084,0.295 l -0.557,1.955 c -0.031,0.094 0.011,0.23 0.095,0.283 0,0 0.042,0.031 0.147,0.094 0.505,0.358 1.408,0.82 1.408,0.82 0.095,0.042 0.231,0.021 0.294,-0.053 l 1.492,-1.418 c 0.074,-0.073 0.21,-0.105 0.315,-0.073 l 0.936,0.22 c 0.094,0.021 0.199,0.116 0.231,0.211 l 0.578,1.943 c 0.032,0.095 0.137,0.179 0.242,0.179 l 1.849,-0.095 c 0.105,-0.01 0.199,-0.094 0.231,-0.199 l 0.483,-2.018 c 0.021,-0.095 0.126,-0.199 0.221,-0.231 l 0.778,-0.272 c 0.094,-0.032 0.231,-0.011 0.305,0.052 l 1.544,1.324 c 0.084,0.063 0.21,0.073 0.294,0.021 l 1.566,-1.125 c 0.084,-0.063 0.115,-0.188 0.084,-0.283 l -0.684,-1.965 c -0.032,-0.095 0,-0.242 0.063,-0.315 l 0.421,-0.547 c 0.063,-0.074 0.188,-0.137 0.294,-0.116 l 2.018,0.274 c 0.094,0.021 0.21,-0.053 0.263,-0.137 l 0.746,-1.839 c 0.032,-0.096 -0.01,-0.221 -0.084,-0.284 l -1.544,-1.208 -0.095,-0.216 c -0.044,-0.037 -0.077,-0.311 -0.098,-0.311 h 0.193 l 9.604,0.232 0.116,0.31 c 0.049,0.074 4.83,7.436 2.728,15.306 z"
         id="path46"
         inkscape:connector-curvature="0"
         style="fill:#526479;fill-opacity:1" /></g></g></svg>
